<?xml version="1.0" standalone="no"?>
<!DOCTYPE svg PUBLIC "-//W3C//DTD SVG 20010904//EN"
 "http://www.w3.org/TR/2001/REC-SVG-20010904/DTD/svg10.dtd">
<svg version="1.0" xmlns="http://www.w3.org/2000/svg"
 width="462.000000pt" height="462.000000pt" viewBox="0 0 462.000000 462.000000"
 preserveAspectRatio="xMidYMid meet">
<metadata>
Created by potrace 1.11, written by Peter Selinger 2001-2013
</metadata>
<g transform="translate(0.000000,462.000000) scale(0.100000,-0.100000)"
fill="#000000" stroke="none">
<path d="M292 4213 c-20 -7 -38 -13 -40 -13 -2 0 -1 -4 2 -9 3 -5 0 -14 -8
-20 -24 -20 -2 -76 45 -111 18 -14 41 -33 51 -42 10 -10 25 -18 33 -18 8 0 15
-5 15 -10 0 -6 16 -18 35 -27 19 -9 32 -20 30 -23 -3 -4 8 -13 23 -19 27 -11
41 -44 18 -39 -19 4 -54 -25 -49 -39 3 -7 1 -13 -5 -13 -8 0 -9 -28 -2 -37 3
-3 7 -19 9 -31 2 -13 77 -92 87 -92 5 0 16 -9 24 -20 8 -11 20 -20 26 -20 7 0
15 -7 18 -16 8 -21 8 -20 -8 -37 -18 -17 -22 -46 -11 -72 11 -26 82 -95 89
-88 3 4 6 1 6 -5 0 -7 7 -12 15 -12 8 0 15 -5 15 -11 0 -5 5 -7 10 -4 5 3 10
2 10 -4 0 -5 9 -13 20 -16 25 -8 25 -20 0 -48 -12 -12 -17 -23 -11 -25 5 -2 7
-11 4 -21 -5 -21 42 -81 63 -81 9 0 13 -4 10 -9 -4 -5 7 -21 24 -34 17 -15 26
-29 20 -32 -6 -4 -7 -12 -3 -18 14 -23 11 -36 -8 -34 -10 1 -19 4 -19 8 0 5
-30 14 -68 20 -4 0 -11 4 -17 9 -11 8 -26 12 -150 36 -85 17 -270 19 -308 5
-15 -6 -27 -8 -27 -6 0 3 -11 -2 -25 -11 -22 -14 -37 -41 -40 -69 -2 -19 17
-78 28 -89 22 -22 77 -57 77 -50 0 3 7 1 15 -6 8 -7 15 -9 15 -4 0 5 4 4 8 -2
8 -13 80 -27 125 -25 31 1 36 -13 10 -28 -10 -6 -13 -11 -6 -11 7 0 10 -6 7
-14 -6 -15 22 -48 47 -55 8 -3 42 -5 76 -5 60 -1 61 -1 58 -26 -3 -24 12 -55
28 -58 4 -1 8 -2 10 -3 16 -6 77 -4 95 2 21 8 30 0 15 -15 -4 -3 -8 -15 -10
-25 -2 -19 13 -30 50 -38 10 -1 32 -11 50 -20 18 -9 48 -18 67 -19 19 -2 40
-4 45 -5 6 -1 25 2 44 5 33 7 66 -8 56 -24 -7 -12 25 -24 65 -24 20 -1 36 -6
36 -13 1 -7 2 -17 3 -22 0 -5 20 -8 43 -6 26 1 52 -3 65 -12 24 -16 59 -11 48
7 -4 6 -11 8 -16 5 -5 -4 -9 -3 -10 2 0 4 -2 19 -5 32 -2 13 1 30 7 37 9 11
15 8 33 -13 16 -18 33 -26 59 -27 20 0 37 -5 37 -11 0 -5 5 -3 11 5 8 12 9 10
4 -7 -10 -36 -13 -93 -5 -93 4 0 10 -8 12 -17 3 -10 22 -24 44 -32 21 -8 42
-18 46 -24 3 -5 -2 -29 -12 -53 -10 -23 -16 -45 -13 -48 4 -3 0 -6 -7 -6 -7 0
-11 -3 -7 -6 3 -4 0 -22 -8 -40 -8 -19 -11 -34 -8 -34 3 0 0 -7 -7 -15 -7 -8
-9 -15 -5 -15 4 0 2 -7 -5 -15 -7 -8 -10 -15 -7 -15 3 0 1 -15 -4 -32 -15 -50
-20 -70 -24 -103 -2 -16 -4 -30 -5 -30 -3 0 -10 -52 -14 -105 -2 -25 -5 -47
-6 -50 -4 -11 -1 -158 4 -205 11 -94 24 -155 33 -155 3 0 11 7 17 16 10 14 13
13 23 -8 13 -27 26 -60 27 -70 1 -4 7 -13 14 -20 6 -6 12 -20 12 -30 0 -11 7
-18 20 -18 11 0 20 -4 20 -9 0 -5 6 -16 13 -23 33 -35 39 -48 29 -60 -16 -20
-31 -87 -22 -93 5 -3 6 -16 1 -28 -14 -37 34 -107 74 -107 19 0 21 -5 21 -50
-1 -27 -5 -50 -9 -50 -5 0 -2 -6 5 -14 7 -7 19 -23 27 -34 8 -12 18 -19 23
-16 4 3 8 0 8 -6 0 -6 10 -10 23 -8 17 2 21 -1 19 -17 -15 -93 9 -146 68 -147
29 -1 34 -8 31 -35 -1 -7 3 -13 9 -13 5 0 10 -7 10 -16 0 -9 12 -28 28 -42 15
-15 33 -39 41 -54 8 -15 22 -36 31 -45 9 -10 19 -26 23 -36 5 -13 11 -16 24
-9 10 5 24 7 30 5 20 -7 83 36 83 56 0 10 3 21 8 25 4 4 7 22 7 39 0 17 6 32
14 35 8 3 12 -1 9 -9 -5 -14 0 -21 43 -70 48 -53 129 -37 165 33 21 41 11 167
-17 220 -6 12 -6 18 0 18 6 0 18 -14 27 -31 27 -54 86 -104 124 -107 74 -6
103 16 118 88 6 31 0 142 -8 150 -11 9 -31 92 -25 98 3 4 9 2 13 -3 4 -6 16
-12 27 -13 11 -2 22 -8 23 -13 2 -5 8 -7 13 -3 5 3 18 7 29 9 25 5 59 43 61
68 1 9 2 23 3 30 1 6 0 16 -3 21 -2 6 -6 24 -7 40 -3 31 -6 41 -19 83 -4 12
-6 25 -5 29 1 4 -4 10 -10 14 -7 4 -11 13 -9 19 3 8 12 5 25 -7 17 -16 53 -34
74 -37 3 0 10 -3 16 -7 14 -9 52 -2 68 12 7 5 17 6 21 2 5 -4 5 -2 1 5 -3 6
-2 14 4 18 18 11 11 91 -12 136 -24 45 -41 64 -116 127 -24 20 -53 45 -63 54
-11 10 -22 18 -25 18 -3 0 -25 14 -49 30 -24 17 -48 30 -54 30 -6 0 -11 3 -11
8 0 4 -9 13 -21 20 -17 11 -20 11 -13 0 4 -7 -4 -3 -17 8 -24 22 -84 55 -95
54 -3 -1 -13 7 -22 17 -9 10 -24 19 -32 21 -8 2 -16 8 -18 13 -2 5 -12 9 -22
9 -10 0 -20 4 -22 8 -3 9 -83 56 -142 85 -26 13 -35 21 -27 27 7 4 13 10 13
13 0 21 12 46 19 41 5 -3 9 -1 9 5 0 11 56 24 110 25 19 1 41 5 48 9 6 5 12 6
12 2 0 -3 13 1 30 10 16 8 32 15 35 15 3 0 20 17 38 37 17 21 34 40 37 43 3 3
18 24 33 48 15 23 33 42 40 42 15 0 137 114 137 128 0 5 7 13 16 16 9 4 14 9
11 13 -4 3 3 14 14 24 11 9 21 21 21 26 1 17 32 73 40 73 5 0 6 11 4 24 -3 17
0 23 12 23 26 -1 72 14 72 24 0 4 20 23 45 42 24 19 42 37 38 41 -3 3 -1 6 6
6 6 0 34 22 61 49 27 27 51 46 54 43 3 -3 6 2 6 12 0 9 5 14 10 11 5 -3 10 -2
10 3 0 5 24 34 52 65 77 83 107 120 108 135 0 7 4 10 10 7 5 -3 12 6 16 20 3
14 10 25 15 25 5 0 9 6 9 14 0 26 68 59 128 62 32 1 71 5 87 9 17 4 46 9 65
11 19 2 53 7 75 10 22 2 63 6 90 7 28 2 55 6 60 9 9 5 80 3 80 -2 0 -8 52 -6
62 2 7 6 14 5 18 -2 3 -6 10 -8 14 -6 4 3 45 8 92 12 46 3 100 7 119 9 19 2
52 3 73 4 20 1 37 6 37 12 0 10 -58 35 -72 31 -5 -1 -8 2 -8 8 0 5 -7 7 -15 4
-8 -3 -20 -2 -27 2 -17 11 -124 16 -368 17 -123 1 -208 6 -212 12 -5 6 -8 6
-8 -1 0 -6 -7 -11 -15 -11 -8 0 -15 5 -15 10 0 6 -5 6 -12 -1 -8 -5 -22 -6
-33 -1 -27 10 -37 11 -31 1 3 -5 -1 -9 -9 -9 -8 0 -15 3 -15 7 0 10 -33 8 -47
-3 -7 -5 -13 -5 -13 0 0 5 -9 9 -20 10 -11 1 -20 -3 -20 -8 0 -6 -7 -6 -17 -1
-10 4 -28 7 -40 6 -13 0 -23 4 -23 11 0 14 -65 75 -80 75 -5 0 -10 4 -10 8 0
9 -70 38 -82 34 -4 -1 -8 2 -8 7 0 6 -9 8 -20 6 -11 -2 -20 1 -20 7 0 5 -7 8
-15 4 -8 -3 -15 -2 -15 2 0 4 -17 7 -38 7 -20 0 -56 2 -79 6 -24 3 -45 4 -48
1 -3 -3 -22 -5 -42 -5 -21 0 -42 -2 -48 -6 -5 -3 -14 -6 -20 -6 -23 0 -105
-30 -105 -38 0 -4 -4 -5 -10 -2 -5 3 -10 1 -10 -5 0 -6 -4 -9 -9 -6 -5 3 -20
-4 -35 -15 -14 -11 -26 -17 -26 -12 0 4 -4 3 -8 -2 -4 -6 -25 -22 -47 -37 -22
-15 -51 -38 -65 -50 -14 -13 -38 -24 -55 -24 -54 -2 -91 -13 -158 -48 -37 -19
-67 -30 -67 -24 0 5 -4 7 -9 3 -5 -3 -12 3 -16 12 -6 20 -51 73 -60 73 -4 0
-13 6 -20 13 -35 31 -65 49 -88 51 -4 1 -11 6 -15 11 -4 6 -14 11 -22 13 -27
6 -123 56 -182 95 -16 10 -28 16 -28 13 0 -3 -14 8 -30 24 -17 17 -34 30 -37
30 -4 0 -2 -5 5 -12 15 -15 16 -28 2 -28 -10 0 -31 17 -103 82 -22 20 -44 35
-49 32 -4 -3 -8 0 -8 6 0 7 -7 10 -15 6 -8 -3 -15 -1 -15 4 0 6 5 10 11 10 5
0 7 5 4 10 -3 6 -17 10 -30 10 -26 0 -39 22 -23 38 7 7 3 18 -15 36 -14 14
-31 26 -37 26 -5 0 -10 5 -10 10 0 6 -7 10 -16 10 -8 0 -12 5 -9 10 3 6 0 10
-7 10 -7 0 -25 11 -40 25 -15 14 -32 25 -37 25 -6 0 -15 8 -20 18 -6 9 -11 13
-11 7 0 -7 -3 -7 -8 0 -4 6 -27 24 -52 40 -50 33 -63 43 -87 65 -9 8 -19 14
-22 12 -3 -1 -14 5 -23 13 -10 8 -18 11 -18 7 0 -4 -5 1 -11 11 -5 9 -15 17
-20 17 -6 0 -37 18 -69 40 -32 22 -64 40 -69 40 -6 0 -11 5 -11 10 0 6 -7 10
-15 10 -8 0 -15 3 -15 8 0 4 -10 12 -23 18 -65 33 -87 46 -87 53 0 5 -14 11
-31 15 -21 4 -28 10 -23 18 4 7 3 10 -1 5 -5 -4 -19 0 -32 8 -13 9 -23 12 -23
9 0 -4 -8 0 -18 9 -10 10 -22 14 -25 10 -4 -3 -7 -1 -7 6 0 6 -6 11 -12 9 -7
-1 -24 4 -36 11 -13 7 -35 15 -50 17 -14 3 -30 8 -36 11 -6 4 -26 8 -45 10
-19 2 -40 8 -46 13 -7 6 -16 5 -23 -2 -7 -7 -12 -8 -12 -2 0 14 -74 12 -118
-3z"/>
</g>
</svg>
