<svg xmlns="http://www.w3.org/2000/svg" xmlns:xlink="http://www.w3.org/1999/xlink" version="1.1" x="0px" y="0px" viewBox="0 0 100 125" enable-background="new 0 0 100 100" xml:space="preserve"><path fill="#000000" d="M43.319,1.109"/><g><path fill="#000000" d="M52.219,98.893"/></g><path fill="#000000" d="M54.554,101.86"/><g><path d="M56.66,59.207c0-0.124-0.012-0.241-0.017-0.365c0.003-0.025,0.017-0.049,0.017-0.076v-3.514   c0-0.73-0.598-1.322-1.323-1.322H54.46c-1.213,0-2.2,2.379-2.2,5.277v0.882v1.759v5.323c0.863,0.18,1.539,0.85,1.713,1.718h0.051   v10.114c0,0.73,0.593,1.322,1.313,1.322h0.005c0.721,0,1.322-0.592,1.322-1.322V68.889v-5.723v-3.077H56.66V59.207z"/><path d="M24.605,53.884c-0.244,0-0.441,0.192-0.441,0.436v6.164c0,0.239-0.195,0.437-0.441,0.437c-0.244,0-0.437-0.197-0.437-0.437   v-6.164c0-0.243-0.197-0.436-0.441-0.436c-0.243,0-0.438,0.192-0.438,0.436h-0.002v6.164c0,0.239-0.197,0.437-0.438,0.437   c-0.246,0-0.438-0.197-0.443-0.437v-6.164c0-0.243-0.193-0.436-0.441-0.436c-0.241,0-0.436,0.192-0.436,0.436v6.164   c0,0.239-0.198,0.437-0.441,0.437c-0.244,0-0.439-0.197-0.439-0.437v-6.164c0-0.243-0.197-0.436-0.443-0.436   c-0.239,0-0.436,0.192-0.436,0.436v8.172c0,0.84,0.742,1.543,1.759,1.813v14.652c0,0.726,0.595,1.318,1.32,1.318   c0.723,0,1.32-0.593,1.32-1.318V64.305c1.018-0.271,1.759-0.974,1.759-1.813v-8.172C25.046,54.076,24.849,53.884,24.605,53.884z"/><path d="M37.773,55.142c-6.954,0-12.592,5.636-12.592,12.59c0,6.959,5.638,12.594,12.592,12.594   c6.954,0,12.594-5.635,12.594-12.594C50.368,60.777,44.727,55.142,37.773,55.142z M37.775,77.528c-5.408,0-9.794-4.386-9.794-9.797   c0-5.41,4.386-9.792,9.794-9.792c5.409,0,9.795,4.382,9.795,9.792C47.57,73.143,43.184,77.528,37.775,77.528z"/><path d="M37.775,59.073c-4.774,0-8.66,3.882-8.66,8.658s3.886,8.662,8.66,8.662c4.775,0,8.66-3.886,8.66-8.662   S42.55,59.073,37.775,59.073z M30.22,67.731l7.553-7.556l7.556,7.556H30.22z"/><rect x="61.102" y="27.999" width="20.003" height="4.001"/><rect x="61.102" y="39.11" width="20.003" height="4"/><rect x="61.102" y="50.221" width="20.003" height="4"/><rect x="61.102" y="61.326" width="19.998" height="4.001"/><rect x="70.003" y="72.438" width="11.102" height="4"/><path d="M27.058,44.066c5.835,5.837,15.146,6.049,21.254,0.67l0.035,0.037l1.415-1.415L27.763,21.362l-1.412,1.413l0.037,0.034   C21.009,28.918,21.22,38.228,27.058,44.066z M39.055,35.481l6.394,6.389c-1.869,1.569-4.095,2.453-6.394,2.65V35.481z    M37.052,44.521c-2.296-0.2-4.524-1.082-6.389-2.65l6.392-6.389L37.052,44.521z M29.251,25.675l6.391,6.391l-9.039,0.002   C26.8,29.768,27.682,27.544,29.251,25.675z M35.642,34.067l-6.391,6.394c-1.569-1.867-2.451-4.093-2.648-6.392L35.642,34.067z"/><path d="M49.625,22.256c0.184-2.143-0.314-4.665-1.996-7.611c0,0-12.208,4.871-6.336,16.409l4.575-12.927l0.941,0.335   l-4.347,12.284l11.136-6.129l0.482,0.877l-11.848,6.518c2.689,0.701,12.755,2.48,15.061-9.381   C57.294,22.63,53.527,21.346,49.625,22.256z"/></g></svg>